<svg width="20" height="19" viewBox="0 0 20 19" fill="none" xmlns="http://www.w3.org/2000/svg">
<path d="M9.0302 10.5319C5.98299 7.50201 7.08642 6.38592 7.0933 6.37903L2.91528 10.557C3.60443 11.5959 4.50234 12.7107 5.6706 13.8725C6.84963 15.0448 8.00903 15.9149 9.10707 16.5576L13.2069 12.4578C13.2069 12.4578 12.087 13.5714 9.0302 10.5319Z" fill="#9282FA" fill-opacity="0.4"/>
<path fill-rule="evenodd" clip-rule="evenodd" d="M13.2074 12.4575L13.6786 11.9891C14.3299 11.3414 15.3451 11.2084 16.1784 11.6614L18.1547 12.7358C19.4239 13.4256 19.7036 15.1165 18.7117 16.1029L17.2422 17.5639C16.8685 17.9355 16.4049 18.207 15.8717 18.2567C14.6385 18.3717 12.1012 18.3097 9.10764 16.5573L13.2074 12.4575ZM7.09388 6.37863L7.39051 6.08365C8.12146 5.3569 8.19034 4.19015 7.55265 3.33831L6.24822 1.59593C5.45901 0.54167 3.93386 0.402416 3.0293 1.30191L1.40559 2.91635C0.957036 3.3623 0.65644 3.94045 0.692936 4.58186C0.759831 5.75994 1.16144 7.91201 2.91578 10.5567L7.09388 6.37863Z" fill="#9282FA"/>
</svg>
